<svg xmlns="http://www.w3.org/2000/svg" width="941.875" height="865.872" viewBox="0 0 941.875 865.872">
  <g id="Groupe_3" data-name="Groupe 3" transform="translate(-786.313 -104.432)">
    <path id="Polygone_1" data-name="Polygone 1" d="M32,0,64,52H0Z" transform="translate(844.517 271.287) rotate(60)" fill="#e98228" opacity="0.23"/>
    <path id="Polygone_9" data-name="Polygone 9" d="M32,0,64,52H0Z" transform="translate(1132 658)" fill="#e98228" opacity="0.23"/>
    <path id="Polygone_10" data-name="Polygone 10" d="M32,0,64,52H0Z" transform="translate(1141.287 114.483) rotate(30)" fill="#e98228" opacity="0.23"/>
    <path id="Polygone_11" data-name="Polygone 11" d="M32,0,64,52H0Z" transform="matrix(0.602, 0.799, -0.799, 0.602, 1113.506, 524.796)" fill="#e98228" opacity="0.23"/>
    <path id="Polygone_12" data-name="Polygone 12" d="M32,0,64,52H0Z" transform="matrix(0.995, 0.105, -0.105, 0.995, 1070.893, 257.798)" fill="#e98228" opacity="0.23"/>
    <path id="Polygone_13" data-name="Polygone 13" d="M32,0,64,52H0Z" transform="translate(1606.329 301.161) rotate(43)" fill="#e98228" opacity="0.23"/>
    <path id="Polygone_3" data-name="Polygone 3" d="M32,0,64,52H0Z" transform="translate(890 626) rotate(90)" fill="#38d99d" opacity="0.23"/>
    <path id="Polygone_7" data-name="Polygone 7" d="M32,0,64,52H0Z" transform="translate(986 760) rotate(90)" fill="#38d99d" opacity="0.23"/>
    <path id="Polygone_8" data-name="Polygone 8" d="M32,0,64,52H0Z" transform="translate(1523 741) rotate(90)" fill="#38d99d" opacity="0.23"/>
    <path id="Polygone_5" data-name="Polygone 5" d="M32,0,64,52H0Z" transform="matrix(-0.961, 0.276, -0.276, -0.961, 1231.869, 930.265)" fill="#38d99d" opacity="0.23"/>
    <path id="Polygone_4" data-name="Polygone 4" d="M32,0,64,52H0Z" transform="translate(1668.438 792.352) rotate(21)" fill="#e81671" opacity="0.23"/>
    <path id="Polygone_6" data-name="Polygone 6" d="M32,0,64,52H0Z" transform="translate(1211.324 174.259) rotate(21)" fill="#e81671" opacity="0.23"/>
    <ellipse id="Ellipse_1" data-name="Ellipse 1" cx="24.5" cy="26" rx="24.5" ry="26" transform="translate(1346 235)" fill="#e81671" opacity="0.23"/>
    <ellipse id="Ellipse_2" data-name="Ellipse 2" cx="24.5" cy="26" rx="24.5" ry="26" transform="translate(864 850)" fill="#38d99d" opacity="0.23"/>
    <ellipse id="Ellipse_8" data-name="Ellipse 8" cx="24.5" cy="26" rx="24.5" ry="26" transform="translate(1107 395)" fill="#38d99d" opacity="0.23"/>
    <ellipse id="Ellipse_3" data-name="Ellipse 3" cx="24.5" cy="26" rx="24.5" ry="26" transform="translate(1063 779)" fill="#e81671" opacity="0.23"/>
    <ellipse id="Ellipse_9" data-name="Ellipse 9" cx="24.5" cy="26" rx="24.5" ry="26" transform="translate(1222 535)" fill="#e81671" opacity="0.23"/>
    <ellipse id="Ellipse_10" data-name="Ellipse 10" cx="24.5" cy="26" rx="24.5" ry="26" transform="translate(828 146)" fill="#e81671" opacity="0.23"/>
    <ellipse id="Ellipse_11" data-name="Ellipse 11" cx="24.5" cy="26" rx="24.5" ry="26" transform="translate(960 918)" fill="#e81671" opacity="0.23"/>
    <ellipse id="Ellipse_6" data-name="Ellipse 6" cx="24.5" cy="26" rx="24.5" ry="26" transform="translate(936 483)" fill="#e81671" opacity="0.23"/>
    <ellipse id="Ellipse_7" data-name="Ellipse 7" cx="24.5" cy="26" rx="24.5" ry="26" transform="translate(1518 246)" fill="#e81671" opacity="0.23"/>
    <ellipse id="Ellipse_4" data-name="Ellipse 4" cx="24.5" cy="26" rx="24.5" ry="26" transform="translate(1395 562)" fill="#38d99d" opacity="0.23"/>
    <ellipse id="Ellipse_12" data-name="Ellipse 12" cx="24.5" cy="26" rx="24.5" ry="26" transform="translate(1316 400)" fill="#38d99d" opacity="0.23"/>
    <ellipse id="Ellipse_13" data-name="Ellipse 13" cx="24.5" cy="26" rx="24.5" ry="26" transform="translate(1267 773)" fill="#38d99d" opacity="0.23"/>
    <ellipse id="Ellipse_14" data-name="Ellipse 14" cx="24.5" cy="26" rx="24.5" ry="26" transform="translate(1450 893)" fill="#38d99d" opacity="0.23"/>
    <rect id="Rectangle_4" data-name="Rectangle 4" width="44" height="55" transform="matrix(0.951, 0.309, -0.309, 0.951, 977.222, 600.356)" fill="#e98228" opacity="0.23"/>
    <rect id="Rectangle_9" data-name="Rectangle 9" width="44" height="55" transform="matrix(-0.574, 0.819, -0.819, -0.574, 1705.141, 664.331)" fill="#e98228" opacity="0.23"/>
    <rect id="Rectangle_15" data-name="Rectangle 15" width="44" height="55" transform="translate(1380.494 910.012) rotate(106)" fill="#e98228" opacity="0.23"/>
    <rect id="Rectangle_16" data-name="Rectangle 16" width="44" height="55" transform="translate(1260.356 338.58) rotate(76)" fill="#e98228" opacity="0.23"/>
    <rect id="Rectangle_17" data-name="Rectangle 17" width="44" height="55" transform="translate(1354.356 667.58) rotate(76)" fill="#e98228" opacity="0.23"/>
    <rect id="Rectangle_18" data-name="Rectangle 18" width="44" height="55" transform="translate(1678.356 511.58) rotate(76)" fill="#e98228" opacity="0.23"/>
    <rect id="Rectangle_7" data-name="Rectangle 7" width="44" height="55" transform="matrix(0.999, -0.052, 0.052, 0.999, 1676.586, 370.252)" fill="#e92882" opacity="0.23"/>
    <rect id="Rectangle_11" data-name="Rectangle 11" width="44" height="55" transform="matrix(0.999, -0.052, 0.052, 0.999, 1520.586, 603.252)" fill="#e92882" opacity="0.23"/>
    <rect id="Rectangle_5" data-name="Rectangle 5" width="44" height="55" transform="matrix(0.883, -0.469, 0.469, 0.883, 786.313, 460.64)" fill="#e98228" opacity="0.23"/>
    <rect id="Rectangle_6" data-name="Rectangle 6" width="65" height="68" transform="translate(1038.147 104.432) rotate(40)" fill="#38d99d" opacity="0.23"/>
    <rect id="Rectangle_12" data-name="Rectangle 12" width="65" height="68" transform="translate(1494.147 368.432) rotate(40)" fill="#38d99d" opacity="0.23"/>
    <rect id="Rectangle_13" data-name="Rectangle 13" width="65" height="68" transform="translate(957.147 305.432) rotate(40)" fill="#38d99d" opacity="0.23"/>
    <rect id="Rectangle_14" data-name="Rectangle 14" width="65" height="68" transform="translate(1641.147 876.432) rotate(40)" fill="#38d99d" opacity="0.23"/>
    <rect id="Rectangle_8" data-name="Rectangle 8" width="65" height="68" transform="translate(1643.883 169.027) rotate(-9)" fill="#38d99d" opacity="0.23"/>
    <rect id="Rectangle_21" data-name="Rectangle 21" width="65" height="68" transform="translate(1302.883 499.027) rotate(-9)" fill="#38d99d" opacity="0.23"/>
    <rect id="Rectangle_22" data-name="Rectangle 22" width="65" height="68" transform="translate(799.883 773.027) rotate(-9)" fill="#38d99d" opacity="0.23"/>
    <rect id="Rectangle_19" data-name="Rectangle 19" width="65" height="68" transform="translate(1570.883 734.027) rotate(-9)" fill="#38d99d" opacity="0.23"/>
    <rect id="Rectangle_20" data-name="Rectangle 20" width="65" height="68" transform="matrix(0.819, 0.574, -0.574, 0.819, 1430.181, 128.032)" fill="#38d99d" opacity="0.23"/>
  </g>
</svg>
